<?xml version="1.0" encoding="UTF-8" standalone="no"?>
<!DOCTYPE svg PUBLIC "-//W3C//DTD SVG 1.1//EN" "http://www.w3.org/Graphics/SVG/1.1/DTD/svg11.dtd">
<svg width="100%" height="100%" viewBox="0 0 1182 1182" version="1.1" xmlns="http://www.w3.org/2000/svg" xmlns:xlink="http://www.w3.org/1999/xlink" xml:space="preserve" xmlns:serif="http://www.serif.com/" style="fill-rule:evenodd;clip-rule:evenodd;stroke-linecap:round;stroke-linejoin:round;stroke-miterlimit:1.5;">
    <g transform="matrix(1,0,0,1,-1299.21,-1653.54)">
        <g id="Semi-solid-Tile" serif:id="Semi-solid Tile" transform="matrix(1,0,0,1,3.77235,1653.54)">
            <rect x="1295.44" y="0" width="1181.1" height="1181.1" style="fill:none;"/>
            <g transform="matrix(1.08874,0,0,0.495406,-142.425,330.56)">
                <rect x="1374.91" y="345.997" width="976.351" height="357.617" style="fill:rgb(255,0,0);stroke:black;stroke-width:49.26px;stroke-dasharray:49.26,147.79,0,0;"/>
            </g>
            <g transform="matrix(1,0,0,1,-3.77235,0)">
                <path d="M1553.72,1032.85C1604.81,561.702 1721.17,135.968 1863.09,135.968C2005,135.968 2064.6,331.806 2070.28,414.114" style="fill:none;stroke:black;stroke-width:41.67px;"/>
            </g>
            <g transform="matrix(1,0,0,1,-3.77235,0)">
                <path d="M2144.07,309.1L2070.28,411.276L1959.25,328.627" style="fill:none;stroke:black;stroke-width:41.67px;"/>
            </g>
            <g transform="matrix(1,0,0,1,-3.77235,0)">
                <path d="M2246.25,436.82L1889.76,436.82" style="fill:none;stroke:black;stroke-width:41.67px;"/>
            </g>
        </g>
    </g>
</svg>
