<?xml version="1.0" encoding="UTF-8" standalone="no"?>
<!DOCTYPE svg PUBLIC "-//W3C//DTD SVG 1.1//EN" "http://www.w3.org/Graphics/SVG/1.1/DTD/svg11.dtd">
<svg width="100%" height="100%" viewBox="0 0 1182 1182" version="1.1" xmlns="http://www.w3.org/2000/svg" xmlns:xlink="http://www.w3.org/1999/xlink" xml:space="preserve" xmlns:serif="http://www.serif.com/" style="fill-rule:evenodd;clip-rule:evenodd;stroke-linecap:round;stroke-linejoin:round;stroke-miterlimit:1.5;">
    <g transform="matrix(1,0,0,1,-1299.21,0)">
        <g id="Eraser" transform="matrix(1.15698,0,0,1.29269,-95.4678,0.302911)">
            <rect x="1205.45" y="-0.234" width="1020.85" height="913.68" style="fill:none;"/>
            <g transform="matrix(0.842095,0,0,0.75369,1218.54,11.602)">
                <g id="Background">
                    <path d="M67.245,76.622C138.387,5.479 1054.87,18.034 1113.46,72.437C1172.05,126.84 1180.42,1043.32 1109.27,1110.28C1038.13,1177.24 146.757,1181.42 75.615,1114.47C4.472,1047.51 -3.898,147.765 67.245,76.622Z" style="fill:white;stroke:rgb(38,38,38);stroke-width:42.77px;"/>
                </g>
            </g>
            <g id="Workspace" transform="matrix(0.864321,0,0,0.773582,81.5449,1.87763)">
                <g id="Outline" transform="matrix(1,0,0,1,94.2126,0)">
                    <path d="M1444.76,250.948C1444.76,250.948 1550.83,155.792 1598.8,156.448C1635.59,156.951 2166.82,609.914 2216.38,673.022C2264.97,734.901 2263.62,742.997 2260.83,764.388C2258.04,785.779 2078.62,1014.53 2016.31,1019.18C2005,1020.02 1973.06,993.324 1938.38,970.893C1902.06,947.403 1342.41,472.286 1334.82,418.902C1327.28,365.777 1444.76,250.948 1444.76,250.948" style="fill:none;stroke:rgb(38,38,38);stroke-width:41.67px;"/>
                </g>
                <g id="EdgeLine" transform="matrix(1,0,0,1,94.2126,0)">
                    <path d="M2213.85,669.671L1940.29,971.834" style="fill:none;stroke:rgb(38,38,38);stroke-width:41.67px;"/>
                </g>
                <g id="MidLine" transform="matrix(0.981995,0,0,0.987743,123.12,8.43443)">
                    <path d="M1605.49,688.112L1887.58,377.329" style="fill:none;stroke:rgb(38,38,38);stroke-width:42.31px;"/>
                </g>
                <g id="EndFill" transform="matrix(1,0,0,1,94.2126,0)">
                    <path d="M1605.88,688.977L1887.16,380.264C1887.16,380.264 1632.39,160.539 1600.39,158.71C1541.25,131.112 1305.48,373.036 1333.74,418.358C1336.78,439.691 1605.88,688.977 1605.88,688.977" style="fill:rgb(38,38,38);stroke:rgb(38,38,38);stroke-width:41.67px;"/>
                </g>
            </g>
        </g>
    </g>
</svg>
