<?xml version="1.0" encoding="UTF-8" standalone="no"?>
<!DOCTYPE svg PUBLIC "-//W3C//DTD SVG 1.1//EN" "http://www.w3.org/Graphics/SVG/1.1/DTD/svg11.dtd">
<svg width="100%" height="100%" viewBox="0 0 1182 1182" version="1.1" xmlns="http://www.w3.org/2000/svg" xmlns:xlink="http://www.w3.org/1999/xlink" xml:space="preserve" xmlns:serif="http://www.serif.com/" style="fill-rule:evenodd;clip-rule:evenodd;stroke-linecap:round;stroke-linejoin:round;stroke-miterlimit:1.5;">
    <g id="Pencil" transform="matrix(0.47619,0,0,0.3367,9.23706e-14,0)">
        <rect x="0" y="0" width="2480.32" height="3507.87" style="fill:none;"/>
        <g transform="matrix(2.046,0,0,2.89363,31.8042,45.4431)">
            <g id="Background">
                <path d="M67.245,76.622C138.387,5.479 1054.87,18.034 1113.46,72.437C1172.05,126.84 1180.42,1043.32 1109.27,1110.28C1038.13,1177.24 146.757,1181.42 75.615,1114.47C4.472,1047.51 -3.898,147.765 67.245,76.622Z" style="fill:white;stroke:rgb(38,38,38);stroke-width:42.77px;"/>
            </g>
        </g>
        <g id="Icon" transform="matrix(2.34261,0,0,3.44302,-140.176,-235.714)">
            <g id="Outline" transform="matrix(0.723734,0,0,0.723734,162.389,159.649)">
                <path d="M87.289,1077.09L158.845,828.954L177.386,764.657L864.737,80.213C864.737,80.213 912.692,61.321 1008.6,155.778C1104.51,250.234 1087.07,299.642 1087.07,299.642L401.175,986.993L87.289,1077.09Z" style="fill:none;stroke:rgb(38,38,38);stroke-width:50.61px;"/>
            </g>
            <g id="Head" transform="matrix(0.723734,0,0,0.723734,162.389,159.649)">
                <path d="M177.649,764.98L284.434,772.051L289.31,877.861L396.095,881.761L401.459,986.84" style="fill:none;stroke:rgb(38,38,38);stroke-width:50.61px;"/>
            </g>
            <g id="Lead" transform="matrix(0.723734,0,0,0.723734,162.389,159.649)">
                <path d="M122.434,955.545L209.5,1042.3" style="fill:none;stroke:rgb(38,38,38);stroke-width:50.61px;"/>
            </g>
            <g id="Eraser" transform="matrix(0.723734,0,0,0.723734,162.389,159.649)">
                <path d="M758.964,185.744L980.416,406.797" style="fill:none;stroke:rgb(38,38,38);stroke-width:50.61px;"/>
            </g>
            <g id="Ridge_01" transform="matrix(0.723734,0,0,0.723734,162.389,159.649)">
                <path d="M289.39,877.749L869.313,297.61" style="fill:none;stroke:rgb(38,38,38);stroke-width:50.61px;"/>
            </g>
            <g id="Ridge_02" transform="matrix(0.723734,0,0,0.723734,162.389,159.649)">
                <path d="M396.204,882.027L925.06,352.312" style="fill:none;stroke:rgb(38,38,38);stroke-width:50.61px;"/>
            </g>
            <g id="Ridge_03" transform="matrix(0.723734,0,0,0.723734,162.389,159.649)">
                <path d="M284.503,772.115L814.384,241.165" style="fill:none;stroke:rgb(38,38,38);stroke-width:50.61px;"/>
            </g>
        </g>
    </g>
</svg>
