<?xml version="1.0" encoding="UTF-8" standalone="no"?>
<!DOCTYPE svg PUBLIC "-//W3C//DTD SVG 1.1//EN" "http://www.w3.org/Graphics/SVG/1.1/DTD/svg11.dtd">
<svg width="100%" height="100%" viewBox="0 0 1182 1182" version="1.1" xmlns="http://www.w3.org/2000/svg" xmlns:xlink="http://www.w3.org/1999/xlink" xml:space="preserve" xmlns:serif="http://www.serif.com/" style="fill-rule:evenodd;clip-rule:evenodd;stroke-linecap:round;stroke-linejoin:round;stroke-miterlimit:1.5;">
    <g transform="matrix(1,0,0,1,-2598.43,0)">
        <g id="Undo" transform="matrix(0.851443,0,0,1.14404,471.078,-69.2)">
            <rect x="2498.52" y="60.488" width="1387.18" height="1032.4" style="fill:none;"/>
            <g transform="matrix(1.14428,0,0,0.851622,2516.31,73.862)">
                <g id="Background">
                    <path d="M67.245,76.622C138.387,5.479 1054.87,18.034 1113.46,72.437C1172.05,126.84 1180.42,1043.32 1109.27,1110.28C1038.13,1177.24 146.757,1181.42 75.615,1114.47C4.472,1047.51 -3.898,147.765 67.245,76.622Z" style="fill:white;stroke:rgb(38,38,38);stroke-width:42.77px;"/>
                </g>
            </g>
            <g id="Undo1" serif:id="Undo" transform="matrix(1.17448,0,0,0.874099,-588.189,42.767)">
                <path d="M2833.43,669.472L2834.39,282.82L2964.38,414.72C2964.38,414.72 3085.81,253.773 3274.85,251.868C3463.89,249.964 3606.28,404.443 3603.95,590.448C3601.63,776.453 3516.76,869.456 3441.2,978.734C3486.54,855.505 3515.6,798.541 3512.11,663.687C3508.63,528.834 3428.41,405.605 3301.69,404.443C3174.98,403.28 3104.06,533.484 3094.76,546.272C3157.54,607.886 3222.64,669.5 3222.64,669.5L2833.43,669.472Z" style="fill:none;stroke:rgb(38,38,38);stroke-width:41.67px;"/>
            </g>
        </g>
    </g>
</svg>
