<?xml version="1.0" encoding="UTF-8" standalone="no"?>
<!DOCTYPE svg PUBLIC "-//W3C//DTD SVG 1.1//EN" "http://www.w3.org/Graphics/SVG/1.1/DTD/svg11.dtd">
<svg width="100%" height="100%" viewBox="0 0 1182 1182" version="1.1" xmlns="http://www.w3.org/2000/svg" xmlns:xlink="http://www.w3.org/1999/xlink" xml:space="preserve" xmlns:serif="http://www.serif.com/" style="fill-rule:evenodd;clip-rule:evenodd;stroke-linecap:round;stroke-linejoin:round;stroke-miterlimit:1.5;">
    <g transform="matrix(1,0,0,1,-5196.85,0)">
        <g id="Floppy-Disk" serif:id="Floppy Disk" transform="matrix(1.00578,0,0,1.07046,5208.01,-1345.7)">
            <rect x="-11.095" y="1257.12" width="1174.31" height="1103.36" style="fill:none;"/>
            <g transform="matrix(0.968683,0,0,0.910152,3.96307,1271.41)">
                <g id="Background">
                    <path d="M67.245,76.622C138.387,5.479 1054.87,18.034 1113.46,72.437C1172.05,126.84 1180.42,1043.32 1109.27,1110.28C1038.13,1177.24 146.757,1181.42 75.615,1114.47C4.472,1047.51 -3.898,147.765 67.245,76.622Z" style="fill:white;stroke:rgb(38,38,38);stroke-width:42.77px;"/>
                </g>
            </g>
            <g id="Workspace" transform="matrix(0.994249,0,0,0.934174,-35.4413,50.803)">
                <g id="Outline" transform="matrix(-1,-1.22465e-16,1.22465e-16,-1,1226.89,3763.74)">
                    <path d="M210.823,2252.92C210.823,2252.92 213.103,1509.48 213.78,1478.16C214.36,1473.48 214.628,1469.04 225.489,1464.89C335.878,1464.8 912.874,1465.16 1001.61,1463.27C1010.68,1463.07 1013.06,1469.89 1012.83,1474.36C1014.29,1501.3 1016.24,2240.86 1016.06,2286.8C1016.04,2290.88 1010.71,2299.15 1003.47,2299.33C966.666,2300.25 941.788,2299.83 936.897,2300.28C934.517,2294.92 934.907,2294.53 934.907,2294.53L818.839,2295.72L816.459,2300.48L392.069,2296.32L391.474,2280.25L375.403,2280.25C375.403,2280.25 364.094,2291.55 361.713,2293.34C359.333,2295.13 291.478,2293.34 291.478,2293.34L287.71,2297.47L254.007,2297.31L210.823,2252.92Z" style="fill:none;stroke:rgb(38,38,38);stroke-width:41.67px;"/>
                </g>
                <g id="MetalSleeve" transform="matrix(-1,-1.22465e-16,1.22465e-16,-1,1226.89,3763.74)">
                    <path d="M392.269,2296.16L391.47,2280.18C391.47,2280.18 392.649,2047.91 392.774,2032.93C392.899,2017.95 405.506,2016.08 409.875,2016.08C414.244,2016.08 796.46,2019.32 800.704,2019.2C804.948,2019.07 818.804,2029.43 818.929,2035.3C819.054,2041.17 818.409,2296.28 818.409,2296.28L816.653,2300.18L392.269,2296.16Z" style="fill:none;stroke:rgb(38,38,38);stroke-width:41.67px;"/>
                </g>
                <g id="MetalSleeveHole" transform="matrix(-1,-1.22465e-16,1.02673e-16,-0.838386,1226.89,3399.01)">
                    <path d="M462.646,2034.29C461.421,2034.28 460.419,2035.27 460.409,2036.49C460.235,2057.9 458.855,2227.58 458.644,2253.49C458.637,2254.37 458.981,2255.21 459.598,2255.83C460.216,2256.46 461.056,2256.8 461.932,2256.8C478.02,2256.78 547.812,2256.68 563.38,2256.66C565.089,2256.65 566.477,2255.28 566.49,2253.57C566.675,2228.8 567.915,2062.74 568.098,2038.18C568.111,2036.51 566.763,2035.14 565.089,2035.13C549.262,2035 476.337,2034.4 462.646,2034.29Z" style="fill:none;stroke:rgb(38,38,38);stroke-width:45.16px;"/>
                </g>
                <g id="Paper" transform="matrix(-1,-1.22465e-16,1.16621e-16,-0.952283,1226.89,3671.27)">
                    <path d="M315.448,1499.28C307.954,1499.32 301.899,1505.4 301.899,1512.9C301.899,1578.26 301.899,1860.49 301.899,1924.85C301.899,1932.09 307.766,1937.96 315.004,1937.96C395.276,1937.96 820.084,1937.96 910.1,1937.96C919.361,1937.96 926.868,1930.45 926.868,1921.19C926.868,1850.94 926.868,1580.8 926.868,1512.08C926.868,1507.85 925.182,1503.79 922.183,1500.81C919.184,1497.82 915.12,1496.16 910.89,1496.18C822.761,1496.64 397.073,1498.85 315.448,1499.28Z" style="fill:none;stroke:rgb(38,38,38);stroke-width:42.67px;"/>
                </g>
                <g transform="matrix(-0.868089,-1.0631e-16,1.22465e-16,-1,1147.84,3745.45)">
                    <path d="M329.438,1833.96L911.026,1833.96" style="fill:none;stroke:rgb(38,38,38);stroke-width:22.25px;"/>
                </g>
                <g transform="matrix(-0.868089,-1.0631e-16,1.22465e-16,-1,1147.84,3723.13)">
                    <path d="M329.039,1734.89L912.091,1734.89" style="fill:none;stroke:rgb(38,38,38);stroke-width:22.25px;"/>
                </g>
                <g transform="matrix(-0.868089,-1.0631e-16,1.22465e-16,-1,1147.84,3700.81)">
                    <path d="M329.438,1636.23L911.159,1636.23" style="fill:none;stroke:rgb(38,38,38);stroke-width:22.25px;"/>
                </g>
                <g transform="matrix(-0.868089,-1.0631e-16,1.22465e-16,-1,1147.84,3783.2)">
                    <path d="M329.438,1636.23L911.159,1636.23" style="fill:none;stroke:rgb(38,38,38);stroke-width:22.25px;"/>
                </g>
            </g>
        </g>
    </g>
</svg>
