<?xml version="1.0" encoding="UTF-8" standalone="no"?>
<!DOCTYPE svg PUBLIC "-//W3C//DTD SVG 1.1//EN" "http://www.w3.org/Graphics/SVG/1.1/DTD/svg11.dtd">
<svg width="100%" height="100%" viewBox="0 0 1182 1182" version="1.1" xmlns="http://www.w3.org/2000/svg" xmlns:xlink="http://www.w3.org/1999/xlink" xml:space="preserve" xmlns:serif="http://www.serif.com/" style="fill-rule:evenodd;clip-rule:evenodd;stroke-linecap:round;stroke-linejoin:round;stroke-miterlimit:1.5;">
    <g transform="matrix(1,0,0,1,-6496.06,0)">
        <g id="Hamburger" transform="matrix(1,0,0,1,-11.4187,0)">
            <rect x="6507.48" y="0" width="1181.1" height="1181.1" style="fill:none;"/>
            <g transform="matrix(0.974285,0,0,0.974285,6522.63,15.3007)">
                <g id="Background">
                    <path d="M67.245,76.622C138.387,5.479 1054.87,18.034 1113.46,72.437C1172.05,126.84 1180.42,1043.32 1109.27,1110.28C1038.13,1177.24 146.757,1181.42 75.615,1114.47C4.472,1047.51 -3.898,147.765 67.245,76.622Z" style="fill:white;stroke:rgb(38,38,38);stroke-width:42.77px;"/>
                </g>
            </g>
            <g id="Workspace" transform="matrix(1,0,0,1,11.4187,0)">
                <g transform="matrix(1,0,0,1,-29.136,-4.27318)">
                    <path d="M6747.48,595.019L7484.02,595.019" style="fill:none;stroke:rgb(38,38,38);stroke-width:104.17px;"/>
                </g>
                <g transform="matrix(1,0,0,1,-29.136,-4.27318)">
                    <path d="M6747.48,347.081L7484.02,347.081" style="fill:none;stroke:rgb(38,38,38);stroke-width:104.17px;"/>
                </g>
                <g transform="matrix(1,0,0,1,-29.136,-4.27318)">
                    <path d="M6747.48,842.568L7484.02,842.568" style="fill:none;stroke:rgb(38,38,38);stroke-width:104.17px;"/>
                </g>
            </g>
        </g>
    </g>
</svg>
